<?xml version="1.0" encoding="utf-8"?>
<!-- Generator: Adobe Illustrator 20.1.0, SVG Export Plug-In . SVG Version: 6.00 Build 0)  -->
<svg version="1.1" id="レイヤー_1" xmlns="http://www.w3.org/2000/svg" xmlns:xlink="http://www.w3.org/1999/xlink" x="0px"
	 y="0px" viewBox="0 0 491.5 491.5" style="enable-background:new 0 0 491.5 491.5;" xml:space="preserve">
<style type="text/css">
	.st0{fill:#666666;}
	.st1{fill:none;}
</style>
<g id="Layer_x0020_1">
	<path class="st0" d="M76.8,230.4c-8.5,0-15.4,6.9-15.4,15.4c0,8.5,6.9,15.4,15.4,15.4h337.9c8.5,0,15.4-6.9,15.4-15.4
		c0-8.5-6.9-15.4-15.4-15.4C414.7,230.4,76.8,230.4,76.8,230.4z"/>
	<path class="st0" d="M315.2,124.5c-6-6-15.7-6-21.7,0c-6,6-6,15.7,0,21.7l99.5,99.5l-99.5,99.5c-6,6-6,15.7,0,21.7s15.7,6,21.7,0
		l110.3-110.3l0.1-0.1c6-6,6-15.7,0-21.7l0,0L315.2,124.5L315.2,124.5z"/>
</g>
<rect class="st1" width="491.5" height="491.5"/>
</svg>
