<?xml version="1.0" encoding="utf-8"?>
<!-- Generator: Adobe Illustrator 20.1.0, SVG Export Plug-In . SVG Version: 6.00 Build 0)  -->
<svg version="1.1" id="レイヤー_1" xmlns="http://www.w3.org/2000/svg" xmlns:xlink="http://www.w3.org/1999/xlink" x="0px"
	 y="0px" viewBox="0 0 491.5 491.5" style="enable-background:new 0 0 491.5 491.5;" xml:space="preserve">
<style type="text/css">
	.st0{fill:#666666;}
	.st1{fill:none;}
</style>
<g id="Layer_x0020_1">
	<g id="_506615432">
		<path id="_506615984" class="st0" d="M414.7,261.1c8.5,0,15.4-6.9,15.4-15.4c0-8.5-6.9-15.4-15.4-15.4H76.8
			c-8.5,0-15.4,6.9-15.4,15.4s6.9,15.4,15.4,15.4H414.7z"/>
		<path id="_506616128" class="st0" d="M176.3,367c6,6,15.7,6,21.7,0c6-6,6-15.7,0-21.7l-99.5-99.5l99.5-99.5c6-6,6-15.7,0-21.7
			c-6-6-15.7-6-21.7,0L66,234.8l-0.1,0.1c-6,6-6,15.7,0,21.7l0,0L176.3,367L176.3,367z"/>
	</g>
</g>
<rect class="st1" width="491.5" height="491.5"/>
</svg>
