<?xml version="1.0" encoding="utf-8"?>
<!-- Generator: Adobe Illustrator 20.1.0, SVG Export Plug-In . SVG Version: 6.00 Build 0)  -->
<svg version="1.1" id="レイヤー_1" xmlns="http://www.w3.org/2000/svg" xmlns:xlink="http://www.w3.org/1999/xlink" x="0px"
	 y="0px" viewBox="0 0 491.5 491.5" style="enable-background:new 0 0 491.5 491.5;" xml:space="preserve">
<style type="text/css">
	.st0{fill:#666666;}
	.st1{fill:none;}
</style>
<g id="Layer_x0020_1">
	<path class="st0" d="M177.6,399.5c8.2,2.2,16.6-2.7,18.8-10.9c2.2-8.2-2.7-16.6-10.9-18.8c-33.6-9-60.4-30.8-76.5-58.7
		c-16.1-27.9-21.6-62-12.6-95.6c9-33.6,30.8-60.4,58.7-76.5c27.9-16.1,62-21.6,95.6-12.6c33.6,9,60.4,30.8,76.5,58.7
		c16.1,27.9,21.6,62,12.6,95.6c-2.2,8.2,2.7,16.6,10.9,18.8c8.2,2.2,16.6-2.7,18.8-10.9c11.2-41.8,4.4-84.1-15.7-118.9
		c-20-34.7-53.3-61.8-95.1-73c-41.8-11.2-84.1-4.4-118.9,15.7c-34.7,20-61.8,53.3-73,95.1c-11.2,41.8-4.4,84.1,15.7,118.9
		C102.6,361.3,135.8,388.3,177.6,399.5L177.6,399.5z"/>
	<path class="st0" d="M424.4,247.2c6.5-5.4,7.5-15,2.1-21.5c-5.4-6.5-15-7.5-21.5-2.1l-48.2,39.7L317.1,215
		c-5.4-6.5-15-7.5-21.5-2.1c-6.5,5.4-7.5,15-2.1,21.5l48.6,59c0.2,0.4,0.5,0.7,0.8,1.1c5.4,6.6,15.1,7.5,21.6,2.1l0,0L424.4,247.2
		L424.4,247.2z"/>
</g>
<rect class="st1" width="491.5" height="491.5"/>
</svg>
