<?xml version="1.0" encoding="utf-8"?>
<!-- Generator: Adobe Illustrator 20.1.0, SVG Export Plug-In . SVG Version: 6.00 Build 0)  -->
<svg version="1.1" id="レイヤー_1" xmlns="http://www.w3.org/2000/svg" xmlns:xlink="http://www.w3.org/1999/xlink" x="0px"
	 y="0px" viewBox="0 0 491.5 491.5" style="enable-background:new 0 0 491.5 491.5;" xml:space="preserve">
<style type="text/css">
	.st0{fill:#666666;}
	.st1{fill:none;}
</style>
<g id="Layer_x0020_1">
	<path class="st0" d="M415.7,96.3c5.7-5.7,5.7-14.9,0-20.5c-5.7-5.7-14.9-5.7-20.5,0L75.8,395.2c-5.7,5.7-5.7,14.9,0,20.5
		c5.7,5.7,14.9,5.7,20.5,0L415.7,96.3L415.7,96.3z"/>
	<path class="st0" d="M96.3,75.8c-5.7-5.7-14.9-5.7-20.5,0c-5.7,5.7-5.7,14.9,0,20.5l319.4,319.4c5.7,5.7,14.9,5.7,20.5,0
		s5.7-14.9,0-20.5L96.3,75.8L96.3,75.8z"/>
</g>
<rect class="st1" width="491.5" height="491.5"/>
</svg>
